<?xml version="1.0" encoding="iso-8859-1"?>
<!-- Uploaded to: SVG Repo, www.svgrepo.com, Generator: SVG Repo Mixer Tools -->
<svg fill="#000000" version="1.1" id="Layer_1" xmlns="http://www.w3.org/2000/svg" xmlns:xlink="http://www.w3.org/1999/xlink" 
	 viewBox="0 0 512 512" xml:space="preserve">
<g>
	<g>
		<rect x="30.115" y="71.525" width="261.022" height="20.079"/>
	</g>
</g>
<g>
	<g>
		<rect x="30.115" y="141.805" width="261.022" height="20.079"/>
	</g>
</g>
<g>
	<g>
		<path d="M420.325,103.712L329.971,3.319c-3.696-4.113-10.059-4.451-14.177-0.745c-4.123,3.706-4.456,10.054-0.745,14.177
			l84.589,93.991l-84.898,103.761c-3.51,4.294-2.878,10.618,1.412,14.128c1.868,1.524,4.118,2.27,6.353,2.27
			c2.907,0,5.789-1.255,7.775-3.681l90.354-110.432C423.771,112.947,423.644,107.398,420.325,103.712z"/>
	</g>
</g>
<g>
	<g>
		<path d="M229.887,495.603l-84.898-103.761l84.589-93.991c3.711-4.123,3.377-10.471-0.745-14.177
			c-4.118-3.721-10.471-3.372-14.177,0.745l-90.354,100.393c-3.318,3.686-3.446,9.235-0.309,13.074l90.354,110.432
			c1.985,2.427,4.868,3.681,7.775,3.681c2.235,0,4.485-0.745,6.353-2.27C232.765,506.221,233.397,499.897,229.887,495.603z"/>
	</g>
</g>
<g>
	<g>
		<rect x="250.98" y="352.631" width="230.904" height="20.079"/>
	</g>
</g>
<g>
	<g>
		<rect x="250.98" y="422.906" width="230.904" height="20.079"/>
	</g>
</g>
</svg>